<mxfile host="app.diagrams.net" modified="2021-08-03T03:09:07.275Z" agent="5.0 (Windows NT 10.0; Win64; x64) AppleWebKit/537.36 (KHTML, like Gecko) Chrome/92.0.4515.107 Safari/537.36" etag="wm1TkKaaa24WgWHFKC7R" version="14.9.3" type="github">
  <diagram id="-nraVw2brQFBzhtr0PvJ" name="Page-1">
    <mxGraphModel dx="1038" dy="1660" grid="1" gridSize="10" guides="1" tooltips="1" connect="1" arrows="1" fold="1" page="1" pageScale="1" pageWidth="827" pageHeight="1169" math="0" shadow="0">
      <root>
        <mxCell id="0" />
        <mxCell id="1" parent="0" />
        <mxCell id="ksbKriG6ZB70LAfuzWoJ-1" value="" style="rounded=0;whiteSpace=wrap;html=1;" vertex="1" parent="1">
          <mxGeometry x="190" y="90" width="300" height="200" as="geometry" />
        </mxCell>
        <mxCell id="ksbKriG6ZB70LAfuzWoJ-2" style="edgeStyle=orthogonalEdgeStyle;rounded=0;orthogonalLoop=1;jettySize=auto;html=1;exitX=0.5;exitY=1;exitDx=0;exitDy=0;entryX=0.5;entryY=0;entryDx=0;entryDy=0;startArrow=classic;startFill=1;" edge="1" parent="1" source="ksbKriG6ZB70LAfuzWoJ-3" target="ksbKriG6ZB70LAfuzWoJ-17">
          <mxGeometry relative="1" as="geometry" />
        </mxCell>
        <mxCell id="ksbKriG6ZB70LAfuzWoJ-3" value="sfc" style="rounded=1;whiteSpace=wrap;html=1;" vertex="1" parent="1">
          <mxGeometry x="315" y="279" width="50" height="20" as="geometry" />
        </mxCell>
        <mxCell id="ksbKriG6ZB70LAfuzWoJ-43" style="rounded=0;orthogonalLoop=1;jettySize=auto;html=1;exitX=0.5;exitY=0;exitDx=0;exitDy=0;entryX=0.5;entryY=1;entryDx=0;entryDy=0;dashed=1;endArrow=none;endFill=0;" edge="1" parent="1" source="ksbKriG6ZB70LAfuzWoJ-4" target="ksbKriG6ZB70LAfuzWoJ-39">
          <mxGeometry relative="1" as="geometry" />
        </mxCell>
        <mxCell id="ksbKriG6ZB70LAfuzWoJ-4" value="PF" style="rounded=0;whiteSpace=wrap;html=1;fillColor=#f8cecc;strokeColor=#b85450;" vertex="1" parent="1">
          <mxGeometry x="209.5" y="219" width="30" height="20" as="geometry" />
        </mxCell>
        <mxCell id="ksbKriG6ZB70LAfuzWoJ-5" value="PF1" style="rounded=0;whiteSpace=wrap;html=1;fillColor=#fff2cc;strokeColor=#d6b656;" vertex="1" parent="1">
          <mxGeometry x="285" y="219" width="30" height="20" as="geometry" />
        </mxCell>
        <mxCell id="ksbKriG6ZB70LAfuzWoJ-6" value="PF2" style="rounded=0;whiteSpace=wrap;html=1;fillColor=#fff2cc;strokeColor=#d6b656;" vertex="1" parent="1">
          <mxGeometry x="325" y="219" width="30" height="20" as="geometry" />
        </mxCell>
        <mxCell id="ksbKriG6ZB70LAfuzWoJ-7" value="PFn" style="rounded=0;whiteSpace=wrap;html=1;fillColor=#fff2cc;strokeColor=#d6b656;" vertex="1" parent="1">
          <mxGeometry x="405" y="219" width="30" height="20" as="geometry" />
        </mxCell>
        <mxCell id="ksbKriG6ZB70LAfuzWoJ-8" value="" style="endArrow=none;dashed=1;html=1;entryX=0;entryY=1;entryDx=0;entryDy=0;exitX=0;exitY=0;exitDx=0;exitDy=0;" edge="1" parent="1" source="ksbKriG6ZB70LAfuzWoJ-3" target="ksbKriG6ZB70LAfuzWoJ-4">
          <mxGeometry width="50" height="50" relative="1" as="geometry">
            <mxPoint x="210" y="309" as="sourcePoint" />
            <mxPoint x="260" y="259" as="targetPoint" />
          </mxGeometry>
        </mxCell>
        <mxCell id="ksbKriG6ZB70LAfuzWoJ-9" value="" style="endArrow=none;dashed=1;html=1;entryX=1;entryY=1;entryDx=0;entryDy=0;exitX=1;exitY=0;exitDx=0;exitDy=0;" edge="1" parent="1" source="ksbKriG6ZB70LAfuzWoJ-3" target="ksbKriG6ZB70LAfuzWoJ-7">
          <mxGeometry width="50" height="50" relative="1" as="geometry">
            <mxPoint x="370" y="379" as="sourcePoint" />
            <mxPoint x="420" y="329" as="targetPoint" />
          </mxGeometry>
        </mxCell>
        <mxCell id="ksbKriG6ZB70LAfuzWoJ-10" value="" style="endArrow=none;html=1;entryX=1;entryY=0.5;entryDx=0;entryDy=0;" edge="1" parent="1">
          <mxGeometry width="50" height="50" relative="1" as="geometry">
            <mxPoint x="190" y="154" as="sourcePoint" />
            <mxPoint x="490" y="154" as="targetPoint" />
          </mxGeometry>
        </mxCell>
        <mxCell id="ksbKriG6ZB70LAfuzWoJ-11" value="Kernel" style="text;html=1;strokeColor=none;fillColor=none;align=center;verticalAlign=middle;whiteSpace=wrap;rounded=0;" vertex="1" parent="1">
          <mxGeometry x="448" y="170" width="40" height="20" as="geometry" />
        </mxCell>
        <mxCell id="ksbKriG6ZB70LAfuzWoJ-12" value="User" style="text;html=1;strokeColor=none;fillColor=none;align=center;verticalAlign=middle;whiteSpace=wrap;rounded=0;" vertex="1" parent="1">
          <mxGeometry x="443" y="132" width="40" height="20" as="geometry" />
        </mxCell>
        <mxCell id="ksbKriG6ZB70LAfuzWoJ-13" value="" style="rounded=0;whiteSpace=wrap;html=1;" vertex="1" parent="1">
          <mxGeometry x="353" y="-84" width="135" height="130" as="geometry" />
        </mxCell>
        <mxCell id="ksbKriG6ZB70LAfuzWoJ-14" value="" style="endArrow=none;html=1;entryX=1;entryY=0.68;entryDx=0;entryDy=0;exitX=0;exitY=0.5;exitDx=0;exitDy=0;entryPerimeter=0;" edge="1" parent="1">
          <mxGeometry width="50" height="50" relative="1" as="geometry">
            <mxPoint x="353" y="16" as="sourcePoint" />
            <mxPoint x="488" y="15.799999999999955" as="targetPoint" />
          </mxGeometry>
        </mxCell>
        <mxCell id="ksbKriG6ZB70LAfuzWoJ-15" value="Kernel" style="text;html=1;strokeColor=none;fillColor=none;align=center;verticalAlign=middle;whiteSpace=wrap;rounded=0;" vertex="1" parent="1">
          <mxGeometry x="448" y="22" width="40" height="20" as="geometry" />
        </mxCell>
        <mxCell id="ksbKriG6ZB70LAfuzWoJ-16" value="User" style="text;html=1;strokeColor=none;fillColor=none;align=center;verticalAlign=middle;whiteSpace=wrap;rounded=0;" vertex="1" parent="1">
          <mxGeometry x="448" y="-4" width="40" height="20" as="geometry" />
        </mxCell>
        <mxCell id="ksbKriG6ZB70LAfuzWoJ-17" value="低时延交换机" style="rounded=0;whiteSpace=wrap;html=1;" vertex="1" parent="1">
          <mxGeometry x="280" y="349" width="120" height="40" as="geometry" />
        </mxCell>
        <mxCell id="ksbKriG6ZB70LAfuzWoJ-18" value="" style="endArrow=classic;html=1;dashed=1;" edge="1" parent="1" target="ksbKriG6ZB70LAfuzWoJ-19">
          <mxGeometry width="50" height="50" relative="1" as="geometry">
            <mxPoint x="420" y="80" as="sourcePoint" />
            <mxPoint x="490" y="60" as="targetPoint" />
          </mxGeometry>
        </mxCell>
        <mxCell id="ksbKriG6ZB70LAfuzWoJ-19" value="PF直通" style="text;html=1;strokeColor=none;fillColor=none;align=center;verticalAlign=middle;whiteSpace=wrap;rounded=0;" vertex="1" parent="1">
          <mxGeometry x="441.5" y="60" width="53" height="20" as="geometry" />
        </mxCell>
        <mxCell id="ksbKriG6ZB70LAfuzWoJ-20" value="&lt;b&gt;....&lt;/b&gt;" style="text;html=1;strokeColor=none;fillColor=none;align=center;verticalAlign=middle;whiteSpace=wrap;rounded=0;" vertex="1" parent="1">
          <mxGeometry x="359" y="219" width="40" height="20" as="geometry" />
        </mxCell>
        <mxCell id="ksbKriG6ZB70LAfuzWoJ-21" value="&lt;font face=&quot;Times New Roman&quot;&gt;Onload&lt;br&gt;TCPDirect/EF_VI&lt;/font&gt;" style="rounded=0;whiteSpace=wrap;html=1;fillColor=#d5e8d4;strokeColor=#82b366;" vertex="1" parent="1">
          <mxGeometry x="370.5" y="-35" width="100" height="30" as="geometry" />
        </mxCell>
        <mxCell id="ksbKriG6ZB70LAfuzWoJ-22" value="APP" style="rounded=0;whiteSpace=wrap;html=1;" vertex="1" parent="1">
          <mxGeometry x="370" y="-74" width="100" height="30" as="geometry" />
        </mxCell>
        <mxCell id="ksbKriG6ZB70LAfuzWoJ-23" style="edgeStyle=orthogonalEdgeStyle;rounded=0;orthogonalLoop=1;jettySize=auto;html=1;exitX=0.5;exitY=0;exitDx=0;exitDy=0;entryX=0.5;entryY=1;entryDx=0;entryDy=0;strokeColor=#FF0000;strokeWidth=1;startArrow=classic;startFill=1;" edge="1" parent="1" source="ksbKriG6ZB70LAfuzWoJ-7" target="ksbKriG6ZB70LAfuzWoJ-21">
          <mxGeometry relative="1" as="geometry" />
        </mxCell>
        <mxCell id="ksbKriG6ZB70LAfuzWoJ-24" value="" style="rounded=0;whiteSpace=wrap;html=1;" vertex="1" parent="1">
          <mxGeometry x="192.5" y="-88" width="135" height="130" as="geometry" />
        </mxCell>
        <mxCell id="ksbKriG6ZB70LAfuzWoJ-25" value="" style="endArrow=none;html=1;entryX=1;entryY=0.68;entryDx=0;entryDy=0;exitX=0;exitY=0.5;exitDx=0;exitDy=0;entryPerimeter=0;" edge="1" parent="1">
          <mxGeometry width="50" height="50" relative="1" as="geometry">
            <mxPoint x="192.5" y="12" as="sourcePoint" />
            <mxPoint x="327.5" y="11.799999999999955" as="targetPoint" />
          </mxGeometry>
        </mxCell>
        <mxCell id="ksbKriG6ZB70LAfuzWoJ-26" value="&lt;font style=&quot;font-size: 11px&quot;&gt;Kernel&lt;/font&gt;" style="text;html=1;strokeColor=none;fillColor=none;align=center;verticalAlign=middle;whiteSpace=wrap;rounded=0;" vertex="1" parent="1">
          <mxGeometry x="287.5" y="18" width="40" height="20" as="geometry" />
        </mxCell>
        <mxCell id="ksbKriG6ZB70LAfuzWoJ-27" value="&lt;font style=&quot;font-size: 10px&quot;&gt;User&lt;/font&gt;" style="text;html=1;strokeColor=none;fillColor=none;align=center;verticalAlign=middle;whiteSpace=wrap;rounded=0;" vertex="1" parent="1">
          <mxGeometry x="287.5" y="-8" width="40" height="20" as="geometry" />
        </mxCell>
        <mxCell id="ksbKriG6ZB70LAfuzWoJ-42" style="edgeStyle=orthogonalEdgeStyle;rounded=0;orthogonalLoop=1;jettySize=auto;html=1;exitX=0.5;exitY=1;exitDx=0;exitDy=0;entryX=0.5;entryY=0;entryDx=0;entryDy=0;dashed=1;fillColor=#e51400;strokeColor=#B20000;startArrow=classic;startFill=1;" edge="1" parent="1" source="ksbKriG6ZB70LAfuzWoJ-29" target="ksbKriG6ZB70LAfuzWoJ-37">
          <mxGeometry relative="1" as="geometry" />
        </mxCell>
        <mxCell id="ksbKriG6ZB70LAfuzWoJ-29" value="&lt;font style=&quot;font-size: 6px&quot; face=&quot;Times New Roman&quot;&gt;Onload/VMA&lt;br&gt;&lt;/font&gt;" style="rounded=0;whiteSpace=wrap;html=1;fillColor=#d5e8d4;strokeColor=#82b366;" vertex="1" parent="1">
          <mxGeometry x="210" y="-39" width="100" height="30" as="geometry" />
        </mxCell>
        <mxCell id="ksbKriG6ZB70LAfuzWoJ-30" value="APP" style="rounded=0;whiteSpace=wrap;html=1;" vertex="1" parent="1">
          <mxGeometry x="209.5" y="-78" width="100" height="30" as="geometry" />
        </mxCell>
        <mxCell id="ksbKriG6ZB70LAfuzWoJ-31" value="PF0" style="rounded=0;whiteSpace=wrap;html=1;fillColor=#fff2cc;strokeColor=#d6b656;" vertex="1" parent="1">
          <mxGeometry x="245" y="219" width="30" height="20" as="geometry" />
        </mxCell>
        <mxCell id="ksbKriG6ZB70LAfuzWoJ-32" value="" style="endArrow=classic;html=1;dashed=1;entryX=1;entryY=0.75;entryDx=0;entryDy=0;" edge="1" parent="1" target="ksbKriG6ZB70LAfuzWoJ-33">
          <mxGeometry width="50" height="50" relative="1" as="geometry">
            <mxPoint x="260" y="80" as="sourcePoint" />
            <mxPoint x="230" y="60" as="targetPoint" />
          </mxGeometry>
        </mxCell>
        <mxCell id="ksbKriG6ZB70LAfuzWoJ-33" value="VF直通" style="text;html=1;strokeColor=none;fillColor=none;align=center;verticalAlign=middle;whiteSpace=wrap;rounded=0;" vertex="1" parent="1">
          <mxGeometry x="184" y="60" width="53" height="20" as="geometry" />
        </mxCell>
        <mxCell id="ksbKriG6ZB70LAfuzWoJ-35" value="" style="endArrow=none;dashed=1;html=1;exitX=0.5;exitY=0;exitDx=0;exitDy=0;entryX=0.5;entryY=1;entryDx=0;entryDy=0;" edge="1" parent="1" source="ksbKriG6ZB70LAfuzWoJ-4" target="ksbKriG6ZB70LAfuzWoJ-36">
          <mxGeometry width="50" height="50" relative="1" as="geometry">
            <mxPoint x="225.5" y="219" as="sourcePoint" />
            <mxPoint x="220" y="200" as="targetPoint" />
          </mxGeometry>
        </mxCell>
        <mxCell id="ksbKriG6ZB70LAfuzWoJ-36" value="VF0" style="rounded=0;whiteSpace=wrap;html=1;fillColor=#f8cecc;strokeColor=#b85450;" vertex="1" parent="1">
          <mxGeometry x="200" y="176" width="30" height="20" as="geometry" />
        </mxCell>
        <mxCell id="ksbKriG6ZB70LAfuzWoJ-37" value="VF1" style="rounded=0;whiteSpace=wrap;html=1;fillColor=#f8cecc;strokeColor=#b85450;" vertex="1" parent="1">
          <mxGeometry x="245" y="175" width="30" height="20" as="geometry" />
        </mxCell>
        <mxCell id="ksbKriG6ZB70LAfuzWoJ-39" value="VFn" style="rounded=0;whiteSpace=wrap;html=1;fillColor=#f8cecc;strokeColor=#b85450;" vertex="1" parent="1">
          <mxGeometry x="297.5" y="175" width="30" height="20" as="geometry" />
        </mxCell>
        <mxCell id="ksbKriG6ZB70LAfuzWoJ-40" value="&lt;b&gt;....&lt;/b&gt;" style="text;html=1;strokeColor=none;fillColor=none;align=center;verticalAlign=middle;whiteSpace=wrap;rounded=0;" vertex="1" parent="1">
          <mxGeometry x="262.5" y="173" width="40" height="20" as="geometry" />
        </mxCell>
      </root>
    </mxGraphModel>
  </diagram>
</mxfile>
